# xmcd CD database file
#
# Track frame offsets:
#	150
#	14118
#	24926
#	44522
#	58626
#	73175
#	86689
#	108782
#	118157
#	130502
#	143389
#	162548
#	174863
#	187716
#	203498
#	218783
#	230599
#	245188
#	253062
#	268099
#
# Disc length: 3844 seconds
#
# Revision: 4
# Processed by: cddbd v1.4PL0 Copyright (c) Steve Scherf et al.
# Submitted via: CDex 1.50Beta7
#
DISCID=1a0f0214
DTITLE=Michel Polnareff - Le Meilleur De Michel Polnareff
DYEAR=2000
DGENRE=French Pop
TTITLE0=Tout,Tout Pour Ma Cherie
TTITLE1=La Michetonneuse
TTITLE2=Love Me,Please Love Me
TTITLE3=L'Amour Avec Toi
TTITLE4=La Poupee Qui Fait Non
TTITLE5=Ame Caline
TTITLE6=Le Bal Des Laze
TTITLE7=Les Grands Setiments Humains
TTITLE8=J'ai Du Chagrin Marie;My Friend
TTITLE9=Allo Georgina
TTITLE10=Comme Juliette Et Romeo
TTITLE11=Dans La Maison Vide
TTITLE12=L'oiseau De Nuit
TTITLE13=Mes Regrets
TTITLE14=Ne Dans Un Ice-Cream
TTITLE15=Qui A Tue Grand' Maman
TTITLE16=Nos Mots D'amour
TTITLE17=Ca M'arrive Qu'aux Autres
TTITLE18=Holidays
TTITLE19=La Mouche
EXTD=YEAR: 2000
EXTT0=
EXTT1=
EXTT2=
EXTT3=
EXTT4=
EXTT5=
EXTT6=
EXTT7=
EXTT8=
EXTT9=
EXTT10=
EXTT11=
EXTT12=
EXTT13=
EXTT14=
EXTT15=
EXTT16=
EXTT17=
EXTT18=
EXTT19=
PLAYORDER=
